<svg xmlns="http://www.w3.org/2000/svg" x="0px" y="0px"
width="50" height="50"
viewBox="0 0 172 172"
style=" fill:#000000;"><g fill="none" fill-rule="nonzero" stroke="none" stroke-width="1" stroke-linecap="butt" stroke-linejoin="miter" stroke-miterlimit="10" stroke-dasharray="" stroke-dashoffset="0" font-family="none" font-weight="none" font-size="none" text-anchor="none" style="mix-blend-mode: normal"><path d="M0,172v-172h172v172z" fill="none"></path><g fill="#abc100"><path d="M99.76,6.90688c-2.64719,0 -5.29437,0.99437 -7.29656,2.99656l-27.52,27.52c-4.00437,4.00438 -4.00437,10.58875 0,14.59313c3.14438,3.14437 7.87438,3.77594 11.70406,1.97531l14.48563,14.48562l-37.85344,35.1525c-0.51062,-0.30906 -1.11531,-0.45687 -1.72,-0.47031c-1.16906,0.01344 -2.27094,0.61813 -2.9025,1.6125c-0.63156,1.00781 -0.69875,2.2575 -0.18812,3.31906l-37.49063,34.83c-5.29437,4.90469 -5.45562,13.34344 -0.34937,18.43625h0.01344c5.09281,5.10625 13.53156,4.95844 18.43625,-0.3225l34.83,-37.50406c1.35719,0.67188 2.99656,0.36281 4.01781,-0.73906c1.03469,-1.11531 1.22281,-2.76813 0.45687,-4.07156l35.13906,-37.85344l14.48563,14.48562c-1.80063,3.82969 -1.16906,8.55969 1.97531,11.70406c4.00438,4.00437 10.58875,4.00437 14.59313,0l27.52,-27.52c4.00437,-4.00438 4.00437,-10.58875 0,-14.59313c-2.00219,-2.00219 -4.64938,-3.01 -7.29656,-3.01c-1.51844,0 -3.01,0.37625 -4.4075,1.03469l-41.36062,-41.36063c1.80062,-3.82969 1.16906,-8.55969 -1.97531,-11.70406c-2.00219,-2.00219 -4.64938,-2.99656 -7.29656,-2.99656zM99.76,13.73313c0.87344,0 1.74688,0.34937 2.43219,1.03469c1.37063,1.37062 1.37063,3.49375 0,4.86437l-27.52,27.52c-1.37062,1.37063 -3.49375,1.37063 -4.86437,0c-1.37063,-1.37062 -1.37063,-3.49375 0,-4.86437l27.52,-27.52c0.68531,-0.68531 1.55875,-1.03469 2.43219,-1.03469zM104.62438,26.92875l7.47125,7.47125l-22.65563,22.65563l-7.47125,-7.47125zM116.96,39.26438l15.77563,15.77562l-22.65563,22.65563l-15.77562,-15.77563zM137.6,59.90438l7.47125,7.47125l-22.65562,22.65562l-7.47125,-7.47125zM154.8,68.78656c0.87344,0 1.74688,0.33594 2.43219,1.02125c1.37063,1.37062 1.37063,3.49375 0,4.86437l-27.52,27.52c-1.37062,1.37063 -3.49375,1.37063 -4.86437,0c-1.37063,-1.37062 -1.37063,-3.49375 0,-4.86437l27.52,-27.52c0.68531,-0.68531 1.55875,-1.02125 2.43219,-1.02125zM95.675,73.6375l2.6875,2.6875l-34.77625,37.43688l-5.34812,-5.34813zM53.19906,113.09l5.71094,5.71094l-34.85687,37.54438c-2.32469,2.49937 -6.14094,2.56656 -8.54625,0.16125c-2.41875,-2.41875 -2.35156,-6.235 0.14781,-8.54625z"></path></g></g></svg>